<svg xmlns="http://www.w3.org/2000/svg" width="100" height="100" fill="none" viewBox="0 0 100 100">
  <g clip-path="url(#a)">
    <path fill="#FFC700"
      d="M6.25 59.375h12.5V81.25H6.25a3.125 3.125 0 0 1-3.125-3.125V62.5a3.125 3.125 0 0 1 3.125-3.125Zm73.438-37.5A10.937 10.937 0 0 0 75 22.934a10.938 10.938 0 1 0-6.25 10.382 10.938 10.938 0 1 0 10.938-11.441Z"
      opacity=".2" />
    <path fill="#FFC700"
      d="M89.973 55.102a9.542 9.542 0 0 0-8.297-1.653l-16.344 3.758A10.937 10.937 0 0 0 54.688 43.75H35.133a12.429 12.429 0 0 0-8.84 3.66l-8.836 8.84H6.25A6.25 6.25 0 0 0 0 62.5v15.625a6.25 6.25 0 0 0 6.25 6.25h40.625c.255 0 .51-.031.758-.094l25-6.25c.16-.038.315-.09.465-.156l15.183-6.46.172-.08a9.608 9.608 0 0 0 1.535-16.233h-.015ZM6.25 62.5h9.375v15.625H6.25V62.5Zm79.465 3.207-14.844 6.32-24.387 6.098H21.875V60.668l8.84-8.836A6.196 6.196 0 0 1 35.133 50h19.554a4.688 4.688 0 0 1 0 9.375H43.75a3.125 3.125 0 1 0 0 6.25h12.5c.235 0 .47-.027.7-.078l26.171-6.02.121-.03a3.36 3.36 0 0 1 2.461 6.21h.012ZM64.062 37.5c.773 0 1.543-.062 2.305-.188a14.062 14.062 0 1 0 11.024-18.359A14.063 14.063 0 1 0 64.062 37.5ZM87.5 32.812a7.813 7.813 0 1 1-15.626 0 7.813 7.813 0 0 1 15.626 0ZM64.062 15.625a7.813 7.813 0 0 1 7.52 5.707 14.064 14.064 0 0 0-5.86 9.738 7.813 7.813 0 1 1-1.66-15.445Z" />
  </g>
  <defs>
    <clipPath id="a">
      <path fill="#fff" d="M0 0h100v100H0z" />
    </clipPath>
  </defs>
</svg>